<svg xmlns="http://www.w3.org/2000/svg" viewBox="0 0 400 300" width="400" height="300">
  <rect width="400" height="300" fill="#F3E7D9"/>
  <g fill="none" stroke="#011936" stroke-width="0.9" opacity="0.5">
    <path d="M30 90 q 40 -26 80 0 t 80 0 t 80 0 t 80 0"/>
    <path d="M30 108 q 40 -26 80 0 t 80 0 t 80 0 t 80 0"/>
    <path d="M30 126 q 40 -24 80 0 t 80 0 t 80 0 t 80 0"/>
  </g>
  <g fill="none" stroke="#011936" stroke-width="0.9" opacity="0.55">
    <path d="M120 200 m 0 0 a 26 26 0 1 0 0.1 0" />
    <path d="M120 200 m -18 0 a 18 18 0 1 0 0.1 0" />
    <path d="M120 200 m -10 0 a 10 10 0 1 0 0.1 0" />
    <path d="M232 214 m 0 0 a 34 34 0 1 0 0.1 0" />
    <path d="M232 214 m -24 0 a 24 24 0 1 0 0.1 0" />
    <path d="M232 214 m -13 0 a 13 13 0 1 0 0.1 0" />
  </g>
  <g fill="none" stroke="#008E89" stroke-width="1.1" opacity="0.8">
    <path d="M60 250 q 50 -34 96 -6 t 96 -6 q 46 -28 90 4"/>
  </g>
  <g fill="none" stroke="#FF5666" stroke-width="1.2" opacity="0.8">
    <path d="M300 120 q 22 14 8 34"/><path d="M308 154 l-9 -5 M308 154 l4 -9"/>
  </g>
  <text x="24" y="40" font-family="Georgia,serif" font-size="13" font-style="italic" fill="#011936" opacity="0.5">moti dell'acqua</text>
</svg>
